<?xml version="1.0" encoding="UTF-8"?>
<svg width="64" height="64" viewBox="0 0 64 64" fill="none" xmlns="http://www.w3.org/2000/svg">
    <!-- Background -->
    <rect x="2" y="2" width="60" height="60" rx="8" fill="black"/>
    
    <!-- DEV Letters -->
    <path d="M12 20h8c4 0 6 2 6 6v12c0 4-2 6-6 6h-8V20zm4 4v16h4c2 0 2-1 2-2V26c0-1 0-2-2-2h-4z" fill="white"/>
    <path d="M32 20h4v24h-4V20z" fill="white"/>
    <path d="M42 20l6 12-6 12h-4l6-12-6-12h4z" fill="white"/>
    
    <!-- Data Points -->
    <circle cx="16" cy="50" r="2" fill="#6366f1"/>
    <circle cx="48" cy="50" r="2" fill="#14b8a6"/>
    
    <!-- Connecting Line -->
    <path d="M18 50h28" stroke="url(#devto-gradient)" stroke-width="2"/>
    
    <!-- Gradient Definition -->
    <defs>
        <linearGradient id="devto-gradient" x1="18" y1="50" x2="46" y2="50" gradientUnits="userSpaceOnUse">
            <stop offset="0%" stop-color="#6366f1"/>
            <stop offset="100%" stop-color="#14b8a6"/>
        </linearGradient>
    </defs>
</svg>
